HIERARCHY
ROOT Hips
{
	OFFSET 0.000000 100.481300 0.000000
	CHANNELS 6 Xposition Yposition Zposition Xrotation Yrotation Zrotation
	JOINT Spine
	{
		OFFSET -0.279200 12.230698 -2.892100
		CHANNELS 3 Xrotation Yrotation Zrotation
		JOINT Spine1
		{
			OFFSET -0.325700 14.269203 -3.374200
			CHANNELS 3 Xrotation Yrotation Zrotation
			JOINT Spine2
			{
				OFFSET -0.372300 16.307602 -0.352600
				CHANNELS 3 Xrotation Yrotation Zrotation
				JOINT Neck
				{
					OFFSET -0.418800 17.814194 8.416900
					CHANNELS 3 Xrotation Yrotation Zrotation
					JOINT Head
					{
						OFFSET 0.000000 7.031097 3.806800
						CHANNELS 3 Xrotation Yrotation Zrotation
						JOINT HeadTop_End
						{
							OFFSET 0.000000 24.646606 12.978600
							CHANNELS 3 Xrotation Yrotation Zrotation
							End Site
							{
								OFFSET 0.000000 27.854965 0.000000
							}
						}
					}
				}
				JOINT LeftShoulder
				{
					OFFSET 16.952999 14.495407 -7.737500
					CHANNELS 3 Xrotation Yrotation Zrotation
					JOINT LeftArm
					{
						OFFSET 9.308998 -2.777710 0.208600
						CHANNELS 3 Xrotation Yrotation Zrotation
						JOINT LeftForeArm
						{
							OFFSET 29.972298 0.000000 0.000000
							CHANNELS 3 Xrotation Yrotation Zrotation
							JOINT LeftHand
							{
								OFFSET 26.026505 0.000000 0.000000
								CHANNELS 3 Xrotation Yrotation Zrotation
								JOINT LeftHandThumb1
								{
									OFFSET 12.240501 -7.147949 9.207150
									CHANNELS 3 Xrotation Yrotation Zrotation
									JOINT LeftHandThumb2
									{
										OFFSET 4.138618 -2.389435 2.389433
										CHANNELS 3 Xrotation Yrotation Zrotation
										JOINT LeftHandThumb3
										{
											OFFSET 2.726913 -1.574387 1.574386
											CHANNELS 3 Xrotation Yrotation Zrotation
											JOINT LeftHandThumb4
											{
												OFFSET 3.941010 -2.275345 2.275342
												CHANNELS 3 Xrotation Yrotation Zrotation
												End Site
												{
													OFFSET -0.005798 5.087799 0.009903
												}
											}
										}
									}
								}
								JOINT LeftHandIndex1
								{
									OFFSET 24.424698 -1.985611 5.953459
									CHANNELS 3 Xrotation Yrotation Zrotation
									JOINT LeftHandIndex2
									{
										OFFSET 6.426697 0.000000 0.000000
										CHANNELS 3 Xrotation Yrotation Zrotation
										JOINT LeftHandIndex3
										{
											OFFSET 5.337898 0.000000 0.000000
											CHANNELS 3 Xrotation Yrotation Zrotation
											JOINT LeftHandIndex4
											{
												OFFSET 4.409401 0.000000 0.000000
												CHANNELS 3 Xrotation Yrotation Zrotation
												End Site
												{
													OFFSET 0.000000 4.409363 0.014373
												}
											}
										}
									}
								}
								JOINT LeftHandMiddle1
								{
									OFFSET 23.810104 0.000000 0.000000
									CHANNELS 3 Xrotation Yrotation Zrotation
									JOINT LeftHandMiddle2
									{
										OFFSET 7.176498 0.000000 0.000000
										CHANNELS 3 Xrotation Yrotation Zrotation
										JOINT LeftHandMiddle3
										{
											OFFSET 6.774902 0.000000 0.000000
											CHANNELS 3 Xrotation Yrotation Zrotation
											JOINT LeftHandMiddle4
											{
												OFFSET 5.403328 0.000000 0.000000
												CHANNELS 3 Xrotation Yrotation Zrotation
												End Site
												{
													OFFSET -0.027702 5.403244 0.017414
												}
											}
										}
									}
								}
								JOINT LeftHandRing1
								{
									OFFSET 22.908401 -0.839279 -6.020567
									CHANNELS 3 Xrotation Yrotation Zrotation
									JOINT LeftHandRing2
									{
										OFFSET 6.337502 0.000000 0.000000
										CHANNELS 3 Xrotation Yrotation Zrotation
										JOINT LeftHandRing3
										{
											OFFSET 5.779297 0.000000 0.000000
											CHANNELS 3 Xrotation Yrotation Zrotation
											JOINT LeftHandRing4
											{
												OFFSET 4.965698 0.000000 0.000000
												CHANNELS 3 Xrotation Yrotation Zrotation
												End Site
												{
													OFFSET 0.000000 4.965668 0.016186
												}
											}
										}
									}
								}
								JOINT LeftHandPinky1
								{
									OFFSET 20.037003 -1.530319 -10.950146
									CHANNELS 3 Xrotation Yrotation Zrotation
									JOINT LeftHandPinky2
									{
										OFFSET 5.254700 0.000000 0.000000
										CHANNELS 3 Xrotation Yrotation Zrotation
										JOINT LeftHandPinky3
										{
											OFFSET 4.810204 0.000000 0.000000
											CHANNELS 3 Xrotation Yrotation Zrotation
											JOINT LeftHandPinky4
											{
												OFFSET 3.647202 0.000000 0.000000
												CHANNELS 3 Xrotation Yrotation Zrotation
												End Site
												{
													OFFSET 0.000000 3.647186 0.011889
												}
											}
										}
									}
								}
							}
						}
					}
				}
				JOINT RightShoulder
				{
					OFFSET -15.141001 14.495407 -7.737500
					CHANNELS 3 Xrotation Yrotation Zrotation
					JOINT RightArm
					{
						OFFSET -9.308998 -2.777710 0.208500
						CHANNELS 3 Xrotation Yrotation Zrotation
						JOINT RightForeArm
						{
							OFFSET -29.972300 0.000000 0.000000
							CHANNELS 3 Xrotation Yrotation Zrotation
							JOINT RightHand
							{
								OFFSET -26.026505 0.000000 0.000000
								CHANNELS 3 Xrotation Yrotation Zrotation
								JOINT RightHandThumb1
								{
									OFFSET -12.240601 -7.148026 9.207092
									CHANNELS 3 Xrotation Yrotation Zrotation
									JOINT RightHandThumb2
									{
										OFFSET -4.138618 -2.389435 2.389433
										CHANNELS 3 Xrotation Yrotation Zrotation
										JOINT RightHandThumb3
										{
											OFFSET -2.726974 -1.574417 1.574421
											CHANNELS 3 Xrotation Yrotation Zrotation
											JOINT RightHandThumb4
											{
												OFFSET -3.941010 -2.275345 2.275343
												CHANNELS 3 Xrotation Yrotation Zrotation
												End Site
												{
													OFFSET 0.005814 5.087799 0.009927
												}
											}
										}
									}
								}
								JOINT RightHandIndex1
								{
									OFFSET -24.424698 -1.985657 5.953444
									CHANNELS 3 Xrotation Yrotation Zrotation
									JOINT RightHandIndex2
									{
										OFFSET -6.426697 0.000000 0.000000
										CHANNELS 3 Xrotation Yrotation Zrotation
										JOINT RightHandIndex3
										{
											OFFSET -5.337898 0.000000 0.000000
											CHANNELS 3 Xrotation Yrotation Zrotation
											JOINT RightHandIndex4
											{
												OFFSET -4.409401 0.000000 0.000000
												CHANNELS 3 Xrotation Yrotation Zrotation
												End Site
												{
													OFFSET 0.000000 4.409363 0.014408
												}
											}
										}
									}
								}
								JOINT RightHandMiddle1
								{
									OFFSET -23.810097 0.000000 0.000000
									CHANNELS 3 Xrotation Yrotation Zrotation
									JOINT RightHandMiddle2
									{
										OFFSET -7.176498 0.000000 0.000000
										CHANNELS 3 Xrotation Yrotation Zrotation
										JOINT RightHandMiddle3
										{
											OFFSET -6.774902 0.000000 0.000000
											CHANNELS 3 Xrotation Yrotation Zrotation
											JOINT RightHandMiddle4
											{
												OFFSET -5.403328 0.000000 0.000000
												CHANNELS 3 Xrotation Yrotation Zrotation
												End Site
												{
													OFFSET 0.027702 5.403244 0.017457
												}
											}
										}
									}
								}
								JOINT RightHandRing1
								{
									OFFSET -22.908302 -0.839325 -6.020576
									CHANNELS 3 Xrotation Yrotation Zrotation
									JOINT RightHandRing2
									{
										OFFSET -6.337502 0.000000 0.000000
										CHANNELS 3 Xrotation Yrotation Zrotation
										JOINT RightHandRing3
										{
											OFFSET -5.779297 0.000000 0.000000
											CHANNELS 3 Xrotation Yrotation Zrotation
											JOINT RightHandRing4
											{
												OFFSET -4.965698 0.000000 0.000000
												CHANNELS 3 Xrotation Yrotation Zrotation
												End Site
												{
													OFFSET 0.000000 4.965668 0.016226
												}
											}
										}
									}
								}
								JOINT RightHandPinky1
								{
									OFFSET -20.037003 -1.530334 -10.950259
									CHANNELS 3 Xrotation Yrotation Zrotation
									JOINT RightHandPinky2
									{
										OFFSET -5.254700 0.000000 0.000000
										CHANNELS 3 Xrotation Yrotation Zrotation
										JOINT RightHandPinky3
										{
											OFFSET -4.810204 0.000000 0.000000
											CHANNELS 3 Xrotation Yrotation Zrotation
											JOINT RightHandPinky4
											{
												OFFSET -3.647202 0.000000 0.000000
												CHANNELS 3 Xrotation Yrotation Zrotation
												End Site
												{
													OFFSET 0.000000 3.647186 0.011917
												}
											}
										}
									}
								}
							}
						}
					}
				}
			}
		}
	}
	JOINT LeftUpLeg
	{
		OFFSET 15.427100 -6.655098 0.678600
		CHANNELS 3 Xrotation Yrotation Zrotation
		JOINT LeftLeg
		{
			OFFSET 4.081073 -39.591068 13.024000
			CHANNELS 3 Xrotation Yrotation Zrotation
			JOINT LeftFoot
			{
				OFFSET -4.081074 -37.707932 -15.979700
				CHANNELS 3 Xrotation Yrotation Zrotation
				JOINT LeftToeBase
				{
					OFFSET 5.346399 -15.068900 20.645000
					CHANNELS 3 Xrotation Yrotation Zrotation
					JOINT LeftToe_End
					{
						OFFSET 2.754700 0.931300 11.300900
						CHANNELS 3 Xrotation Yrotation Zrotation
						End Site
						{
							OFFSET 0.000000 11.669021 0.000000
						}
					}
				}
			}
		}
	}
	JOINT RightUpLeg
	{
		OFFSET -15.569500 -6.655098 0.678600
		CHANNELS 3 Xrotation Yrotation Zrotation
		JOINT RightLeg
		{
			OFFSET -4.081825 -39.591045 13.023800
			CHANNELS 3 Xrotation Yrotation Zrotation
			JOINT RightFoot
			{
				OFFSET 4.081824 -37.707954 -15.979600
				CHANNELS 3 Xrotation Yrotation Zrotation
				JOINT RightToeBase
				{
					OFFSET -5.346400 -15.068900 20.645000
					CHANNELS 3 Xrotation Yrotation Zrotation
					JOINT RightToe_End
					{
						OFFSET -2.754700 0.931300 11.300900
						CHANNELS 3 Xrotation Yrotation Zrotation
						End Site
						{
							OFFSET 0.000000 11.669021 0.000000
						}
					}
				}
			}
		}
	}
}
MOTION
Frames: 4
Frame Time: 0.033333
2.068404 64.713219 -1.029268 16.295961 -11.830284 -3.914915 11.288885 17.225799 -10.276978 2.869500 4.087944 -0.126402 2.861633 4.312291 -0.311450 -0.688875 -2.356470 4.369681 -6.951124 -9.322004 11.106345 0.000001 -0.000000 -0.000000 1.124708 -1.331169 -15.116532 -9.590823 31.513212 -40.008403 0.000006 -10.721297 0.000009 15.668210 -19.583494 20.990322 -5.456658 -6.701470 3.223902 8.086109 27.604254 1.097696 -10.020101 -14.017817 7.739285 0.000001 -0.000002 0.000001 -1.866385 -6.065071 -12.588966 0.237185 1.651684 -16.342785 0.250133 1.695205 -16.786216 0.000000 -0.000000 -0.000000 -1.264247 -0.680217 -18.650018 0.387931 2.098233 -20.947907 0.466484 2.292750 -22.997857 -0.000002 0.000003 -0.000001 0.028222 3.645201 -26.113051 0.502178 2.375013 -23.874339 0.587681 2.559327 -25.860510 0.000002 -0.000000 -0.000002 0.229231 4.355139 -33.121189 0.780414 2.923316 -29.888645 0.780015 2.922626 -29.880858 0.000002 0.000002 -0.000001 2.870334 11.957088 -6.152307 -33.803665 70.877577 6.927828 -0.000372 94.709555 0.000358 17.111791 20.467027 -11.105438 -15.299431 26.937084 3.983095 9.848477 -45.620746 -5.493344 -7.056859 3.103168 -14.205561 0.000001 -0.000001 -0.000001 0.530848 -4.798259 13.845700 0.169904 -1.247735 15.507875 0.169797 -1.247381 15.503208 -0.000000 0.000001 -0.000001 1.576775 -6.016271 32.822273 0.816458 -2.636013 34.413638 0.910235 -2.767786 36.402839 0.000003 -0.000001 0.000001 2.347857 -6.542672 43.827422 1.218019 -3.142188 42.367848 1.329183 -3.259704 44.358462 0.000001 0.000000 -0.000000 3.146671 -6.893226 54.105545 1.765795 -3.652480 51.591458 1.765223 -3.652018 51.582661 0.000001 -0.000001 0.000003 -88.379820 -2.002458 2.761889 44.380571 11.634402 0.221771 21.290753 26.697763 10.758091 -4.481802 -0.000012 -0.000006 -0.000000 0.000001 0.000000 26.062043 -5.827635 4.491480 33.950490 -6.464132 11.589141 -38.378194 -19.886316 14.062356 -42.282412 -0.000010 -0.000001 -0.000001 -0.000001 -0.000000 
1.667042 64.537292 -0.229580 15.557921 -12.000351 -4.820832 11.313046 17.310500 -10.404237 2.854325 4.224889 -0.399243 2.845167 4.449041 -0.584060 -0.328090 -2.546311 5.448029 -7.019636 -9.335705 11.536523 0.000000 0.000000 -0.000000 1.038455 -1.165932 -13.896119 -18.906295 32.950212 -29.445919 0.000006 -9.371523 0.000014 17.258836 -16.191057 25.882292 -4.789125 -6.892058 3.046088 7.248917 27.649830 1.533683 -9.380128 -11.305853 8.557836 0.000003 0.000002 -0.000001 -1.527820 -6.402523 -13.893942 0.272280 1.766904 -17.519212 0.256475 1.716049 -16.999045 0.000000 -0.000001 -0.000001 -1.331159 -0.514792 -19.948874 0.409465 2.153595 -21.528304 0.386992 2.095753 -20.922034 -0.000001 -0.000001 -0.000001 -0.010477 3.603820 -26.737764 0.499364 2.368673 -23.806568 0.511233 2.395357 -24.091950 0.000002 -0.000001 0.000000 0.400479 5.064614 -32.590992 0.733025 2.839385 -28.945884 0.650336 2.684628 -27.230076 0.000002 -0.000001 0.000002 2.900565 12.526820 -6.107386 -33.391234 73.693534 3.850705 -0.000753 87.732373 0.000724 20.162592 24.342811 -14.598554 -16.664019 21.896017 4.452701 9.666645 -43.457383 -5.370220 -6.748933 0.929958 -14.715757 0.000001 -0.000004 0.000000 0.729880 -5.270291 13.378231 0.173462 -1.260488 15.670484 0.142004 -1.142458 14.170201 0.000002 0.000001 -0.000000 1.895577 -6.613880 31.284162 0.766446 -2.561564 33.310768 0.756604 -2.546545 33.089890 -0.000000 0.000001 0.000000 2.781101 -7.122973 41.488365 1.165813 -3.084051 41.406574 1.081705 -2.986125 39.818282 0.000002 -0.000000 -0.000002 3.433020 -8.490209 51.526722 1.536882 -3.459027 47.901705 1.513021 -3.437348 47.504932 0.000001 0.000000 -0.000001 -88.424838 -2.137390 3.414015 46.350138 10.996203 0.321826 20.100931 26.514113 10.612457 -4.481062 -0.000007 0.000003 -0.000000 0.000002 -0.000000 27.073046 -5.620161 4.187373 34.094935 -5.769838 11.692255 -34.975288 -20.671837 16.630659 -50.262413 -0.000007 0.000003 0.000001 0.000000 0.000000 
1.349693 65.282021 1.400940 14.765387 -11.780714 -6.050525 11.432910 17.106439 -10.319320 3.022722 4.184338 -0.550122 3.012056 4.417511 -0.727362 0.103499 -2.576945 5.584796 -6.346256 -9.651393 12.644933 0.000001 0.000000 -0.000000 0.890869 -2.200546 -13.449780 -33.058119 29.742902 -13.154531 -0.000001 -14.848208 0.000001 19.518746 -17.242394 33.558567 -4.057351 -7.091366 2.820241 6.410974 27.823643 1.976288 -8.710933 -8.248187 9.438107 0.000000 -0.000001 0.000000 -1.172160 -6.773388 -15.467501 0.318766 1.907858 -18.968987 0.265435 1.745093 -17.295910 -0.000000 -0.000000 -0.000002 -1.418630 -0.334111 -21.554943 0.440735 2.231161 -22.345474 0.313447 1.892328 -18.808659 0.000000 0.000001 0.000001 -0.079404 3.527109 -27.653484 0.503941 2.379013 -23.916905 0.437883 2.224207 -22.272127 -0.000002 -0.000001 -0.000001 0.514625 5.767761 -32.257887 0.692616 2.765140 -28.119344 0.529708 2.436233 -24.530406 -0.000000 0.000000 -0.000000 3.240087 13.673993 -10.222475 -44.415265 73.178947 11.754381 -0.000004 72.858625 0.000005 28.004638 29.669399 -23.582965 -18.161552 17.044619 4.847362 9.490486 -41.362574 -5.246589 -6.428735 -1.494823 -15.272361 -0.000001 -0.000000 0.000003 0.850220 -5.342728 12.889666 0.180145 -1.284069 15.971446 0.117932 -1.042530 12.907998 0.000002 -0.000001 -0.000004 2.000637 -6.920817 29.731714 0.723274 -2.494689 32.331834 0.615546 -2.315904 29.765418 0.000001 -0.000002 -0.000001 2.961350 -7.503631 39.097659 1.125260 -3.037524 40.646920 0.851903 -2.686963 35.176922 0.000001 -0.000001 0.000001 3.635813 -9.728464 48.957099 1.317704 -3.247944 44.156265 1.276087 -3.204588 43.416722 0.000004 0.000004 0.000000 -87.270864 -1.767565 3.830235 48.086840 9.982942 0.607605 17.785603 26.233549 10.711984 -4.480115 0.000004 0.000006 -0.000000 0.000001 -0.000000 28.814666 -6.778257 6.015507 31.766025 -2.825780 10.446646 -30.542151 -22.512602 15.470828 -51.792221 0.000010 0.000012 -0.000002 -0.000001 -0.000001 
1.048035 66.813095 3.517639 13.500818 -10.942191 -7.544456 11.861795 16.422855 -10.354108 3.619086 3.933023 -0.455756 3.606783 4.186177 -0.618395 0.422928 -2.536718 5.512699 -5.286599 -9.701376 13.722555 -0.000001 -0.000000 -0.000000 0.695622 -4.047769 -12.879804 -48.009427 20.247589 0.727076 0.000001 -26.935375 0.000001 24.496349 -21.661841 42.036707 -3.277128 -7.244832 2.548410 5.569968 28.094431 2.429644 -8.041346 -4.923249 10.350861 -0.000001 0.000000 0.000003 -0.821742 -7.121673 -17.257892 0.376326 2.067657 -20.628355 0.276542 1.780348 -17.656942 0.000001 -0.000000 -0.000002 -1.498860 -0.085861 -23.409461 0.480302 2.325020 -23.340954 0.246652 1.683614 -16.668040 -0.000000 -0.000001 -0.000006 -0.150792 3.472521 -28.807832 0.514201 2.401988 -24.162943 0.368671 2.047219 -20.415143 0.000000 -0.000000 -0.000000 0.617773 6.504871 -32.092231 0.657463 2.698408 -27.381784 0.419633 2.179160 -21.797161 0.000000 0.000000 0.000000 3.910759 15.127488 -16.721201 -60.080953 70.367075 23.607473 -0.000000 52.641016 0.000000 39.935614 32.918674 -38.386080 -19.797916 12.394338 5.152783 9.318439 -39.322738 -5.121909 -6.109404 -4.112534 -15.859926 0.000001 0.000001 -0.000001 0.903627 -5.062091 12.405175 0.189329 -1.315764 16.376692 0.096999 -0.946561 11.701856 -0.000003 -0.000001 -0.000000 1.936548 -6.957241 28.190417 0.685118 -2.433415 31.444494 0.487910 -2.077049 26.436218 -0.000001 0.000001 -0.000001 2.937682 -7.684796 36.688614 1.093149 -2.999776 40.037469 0.644014 -2.364951 30.462644 0.000001 0.000002 -0.000001 3.781586 -10.643591 46.416323 1.110742 -3.020543 40.372217 1.056124 -2.955219 39.324872 0.000001 0.000001 0.000001 -84.544184 -0.849367 3.878278 49.177041 8.623857 1.231137 14.860328 25.831492 10.973535 -4.478158 -0.000009 -0.000002 0.000000 0.000001 0.000000 27.046697 -8.469222 9.344207 35.924104 -1.494998 8.451905 -21.593681 -26.729312 10.853761 -43.540082 -0.007422 0.385503 0.000000 0.000002 -0.000000 
